<svg width="1341" height="933" viewBox="0 0 1341 933" fill="none" xmlns="http://www.w3.org/2000/svg">
<g clip-path="url(#clip0_565_36968)">
<g opacity="0.2" filter="url(#filter0_f_565_36968)">
<ellipse cx="670.5" cy="87.5" rx="670.5" ry="388.5" fill="#9747FF"/>
</g>
<path d="M175.692 443C177.291 443 178.501 443.63 179.323 444.891C180.159 446.138 180.577 447.953 180.577 450.336C180.577 452.719 180.159 454.541 179.323 455.802C178.501 457.063 177.291 457.693 175.692 457.693C174.109 457.693 172.899 457.063 172.062 455.802C171.226 454.541 170.808 452.719 170.808 450.336C170.808 447.967 171.226 446.152 172.062 444.891C172.899 443.63 174.109 443 175.692 443ZM172.398 450.336C172.398 452.026 172.563 453.35 172.891 454.306L177.866 445.099C177.343 444.448 176.619 444.122 175.692 444.122C174.662 444.122 173.855 444.635 173.272 445.66C172.69 446.672 172.398 448.23 172.398 450.336ZM175.692 456.55C176.738 456.55 177.552 456.044 178.135 455.033C178.718 454.008 179.009 452.442 179.009 450.336C179.009 448.549 178.822 447.163 178.449 446.18L173.474 455.469C174.012 456.19 174.751 456.55 175.692 456.55Z" fill="url(#paint0_linear_565_36968)" fill-opacity="0.6"/>
<path d="M177.037 480.135H180.331V481.236H171.793V480.135H175.603V468.455L171.973 470.471L171.345 469.536L175.827 466.959H177.037V480.135Z" fill="url(#paint1_linear_565_36968)" fill-opacity="0.6"/>
<path d="M175.692 490.502C177.291 490.502 178.501 491.133 179.323 492.393C180.159 493.64 180.577 495.455 180.577 497.838C180.577 500.221 180.159 502.043 179.323 503.304C178.501 504.565 177.291 505.195 175.692 505.195C174.109 505.195 172.899 504.565 172.062 503.304C171.226 502.043 170.808 500.221 170.808 497.838C170.808 495.469 171.226 493.654 172.062 492.393C172.899 491.133 174.109 490.502 175.692 490.502ZM172.398 497.838C172.398 499.529 172.563 500.852 172.891 501.808L177.866 492.601C177.343 491.95 176.619 491.624 175.692 491.624C174.662 491.624 173.855 492.137 173.272 493.162C172.69 494.174 172.398 495.732 172.398 497.838ZM175.692 504.052C176.738 504.052 177.552 503.546 178.135 502.535C178.718 501.51 179.009 499.944 179.009 497.838C179.009 496.051 178.822 494.665 178.449 493.682L173.474 502.971C174.012 503.692 174.751 504.052 175.692 504.052Z" fill="url(#paint2_linear_565_36968)" fill-opacity="0.6"/>
<path d="M177.037 527.637H180.331V528.738H171.793V527.637H175.603V515.957L171.973 517.973L171.345 517.038L175.827 514.461H177.037V527.637Z" fill="url(#paint3_linear_565_36968)" fill-opacity="0.6"/>
<path d="M177.037 551.388H180.331V552.489H171.793V551.388H175.603V539.708L171.973 541.724L171.345 540.789L175.827 538.212H177.037V551.388Z" fill="url(#paint4_linear_565_36968)" fill-opacity="0.6"/>
<path d="M175.692 561.755C177.291 561.755 178.501 562.386 179.323 563.646C180.159 564.893 180.577 566.708 180.577 569.091C180.577 571.474 180.159 573.296 179.323 574.557C178.501 575.818 177.291 576.448 175.692 576.448C174.109 576.448 172.899 575.818 172.062 574.557C171.226 573.296 170.808 571.474 170.808 569.091C170.808 566.722 171.226 564.907 172.062 563.646C172.899 562.386 174.109 561.755 175.692 561.755ZM172.398 569.091C172.398 570.782 172.563 572.105 172.891 573.061L177.866 563.854C177.343 563.203 176.619 562.878 175.692 562.878C174.662 562.878 173.855 563.39 173.272 564.415C172.69 565.427 172.398 566.985 172.398 569.091ZM175.692 575.305C176.738 575.305 177.552 574.8 178.135 573.788C178.718 572.763 179.009 571.197 179.009 569.091C179.009 567.304 178.822 565.919 178.449 564.935L173.474 574.225C174.012 574.945 174.751 575.305 175.692 575.305Z" fill="url(#paint5_linear_565_36968)" fill-opacity="0.6"/>
<path d="M177.037 598.89H180.331V599.992H171.793V598.89H175.603V587.21L171.973 589.226L171.345 588.291L175.827 585.714H177.037V598.89Z" fill="url(#paint6_linear_565_36968)" fill-opacity="0.6"/>
<path d="M175.692 609.257C177.291 609.257 178.501 609.888 179.323 611.149C180.159 612.396 180.577 614.211 180.577 616.594C180.577 618.977 180.159 620.798 179.323 622.059C178.501 623.32 177.291 623.95 175.692 623.95C174.109 623.95 172.899 623.32 172.062 622.059C171.226 620.798 170.808 618.977 170.808 616.594C170.808 614.224 171.226 612.409 172.062 611.149C172.899 609.888 174.109 609.257 175.692 609.257ZM172.398 616.594C172.398 618.284 172.563 619.607 172.891 620.563L177.866 611.356C177.343 610.705 176.619 610.38 175.692 610.38C174.662 610.38 173.855 610.892 173.272 611.918C172.69 612.929 172.398 614.488 172.398 616.594ZM175.692 622.807C176.738 622.807 177.552 622.302 178.135 621.29C178.718 620.265 179.009 618.699 179.009 616.594C179.009 614.806 178.822 613.421 178.449 612.437L173.474 621.727C174.012 622.447 174.751 622.807 175.692 622.807Z" fill="url(#paint7_linear_565_36968)" fill-opacity="0.6"/>
<path d="M175.692 633.008C177.291 633.008 178.501 633.639 179.323 634.9C180.159 636.147 180.577 637.962 180.577 640.345C180.577 642.728 180.159 644.549 179.323 645.81C178.501 647.071 177.291 647.701 175.692 647.701C174.109 647.701 172.899 647.071 172.062 645.81C171.226 644.549 170.808 642.728 170.808 640.345C170.808 637.975 171.226 636.16 172.062 634.9C172.899 633.639 174.109 633.008 175.692 633.008ZM172.398 640.345C172.398 642.035 172.563 643.358 172.891 644.314L177.866 635.107C177.343 634.456 176.619 634.131 175.692 634.131C174.662 634.131 173.855 634.643 173.272 635.669C172.69 636.68 172.398 638.239 172.398 640.345ZM175.692 646.558C176.738 646.558 177.552 646.053 178.135 645.041C178.718 644.016 179.009 642.451 179.009 640.345C179.009 638.557 178.822 637.172 178.449 636.188L173.474 645.478C174.012 646.198 174.751 646.558 175.692 646.558Z" fill="url(#paint8_linear_565_36968)" fill-opacity="0.6"/>
<path d="M177.037 670.143H180.331V671.245H171.793V670.143H175.603V658.464L171.973 660.48L171.345 659.544L175.827 656.967H177.037V670.143Z" fill="url(#paint9_linear_565_36968)" fill-opacity="0.6"/>
<path d="M175.692 680.511C177.291 680.511 178.501 681.141 179.323 682.402C180.159 683.649 180.577 685.464 180.577 687.847C180.577 690.23 180.159 692.052 179.323 693.312C178.501 694.573 177.291 695.204 175.692 695.204C174.109 695.204 172.899 694.573 172.062 693.312C171.226 692.052 170.808 690.23 170.808 687.847C170.808 685.478 171.226 683.663 172.062 682.402C172.899 681.141 174.109 680.511 175.692 680.511ZM172.398 687.847C172.398 689.537 172.563 690.86 172.891 691.816L177.866 682.61C177.343 681.958 176.619 681.633 175.692 681.633C174.662 681.633 173.855 682.145 173.272 683.171C172.69 684.182 172.398 685.741 172.398 687.847ZM175.692 694.061C176.738 694.061 177.552 693.555 178.135 692.543C178.718 691.518 179.009 689.953 179.009 687.847C179.009 686.059 178.822 684.674 178.449 683.69L173.474 692.98C174.012 693.7 174.751 694.061 175.692 694.061Z" fill="url(#paint10_linear_565_36968)" fill-opacity="0.6"/>
<path d="M177.037 717.645H180.331V718.747H171.793V717.645H175.603V705.966L171.973 707.982L171.345 707.046L175.827 704.469H177.037V717.645Z" fill="url(#paint11_linear_565_36968)" fill-opacity="0.6"/>
<path d="M177.037 741.396H180.331V742.498H171.793V741.396H175.603V729.717L171.973 731.733L171.345 730.798L175.827 728.221H177.037V741.396Z" fill="url(#paint12_linear_565_36968)" fill-opacity="0.6"/>
<path d="M217.308 490.502C218.906 490.502 220.116 491.133 220.938 492.393C221.774 493.64 222.192 495.455 222.192 497.838C222.192 500.221 221.774 502.043 220.938 503.304C220.116 504.565 218.906 505.195 217.308 505.195C215.724 505.195 214.514 504.565 213.677 503.304C212.841 502.043 212.423 500.221 212.423 497.838C212.423 495.469 212.841 493.654 213.677 492.393C214.514 491.133 215.724 490.502 217.308 490.502ZM214.014 497.838C214.014 499.529 214.178 500.852 214.507 501.808L219.481 492.601C218.958 491.95 218.234 491.624 217.308 491.624C216.277 491.624 215.47 492.137 214.887 493.162C214.305 494.174 214.014 495.732 214.014 497.838ZM217.308 504.052C218.353 504.052 219.167 503.546 219.75 502.535C220.333 501.51 220.624 499.944 220.624 497.838C220.624 496.051 220.437 494.665 220.064 493.682L215.089 502.971C215.627 503.692 216.366 504.052 217.308 504.052Z" fill="url(#paint13_linear_565_36968)" fill-opacity="0.6"/>
<path d="M218.652 527.637H221.946V528.738H213.409V527.637H217.218V515.957L213.588 517.973L212.96 517.038L217.442 514.461H218.652V527.637Z" fill="url(#paint14_linear_565_36968)" fill-opacity="0.6"/>
<path d="M217.308 538.004C218.906 538.004 220.116 538.635 220.938 539.895C221.774 541.142 222.192 542.957 222.192 545.34C222.192 547.723 221.774 549.545 220.938 550.806C220.116 552.067 218.906 552.697 217.308 552.697C215.724 552.697 214.514 552.067 213.677 550.806C212.841 549.545 212.423 547.723 212.423 545.34C212.423 542.971 212.841 541.156 213.677 539.895C214.514 538.635 215.724 538.004 217.308 538.004ZM214.014 545.34C214.014 547.031 214.178 548.354 214.507 549.31L219.481 540.103C218.958 539.452 218.234 539.126 217.308 539.126C216.277 539.126 215.47 539.639 214.887 540.664C214.305 541.676 214.014 543.234 214.014 545.34ZM217.308 551.554C218.353 551.554 219.167 551.049 219.75 550.037C220.333 549.012 220.624 547.446 220.624 545.34C220.624 543.553 220.437 542.168 220.064 541.184L215.089 550.474C215.627 551.194 216.366 551.554 217.308 551.554Z" fill="url(#paint15_linear_565_36968)" fill-opacity="0.6"/>
<path d="M217.308 561.755C218.906 561.755 220.116 562.386 220.938 563.646C221.774 564.893 222.192 566.708 222.192 569.091C222.192 571.474 221.774 573.296 220.938 574.557C220.116 575.818 218.906 576.448 217.308 576.448C215.724 576.448 214.514 575.818 213.677 574.557C212.841 573.296 212.423 571.474 212.423 569.091C212.423 566.722 212.841 564.907 213.677 563.646C214.514 562.386 215.724 561.755 217.308 561.755ZM214.014 569.091C214.014 570.782 214.178 572.105 214.507 573.061L219.481 563.854C218.958 563.203 218.234 562.878 217.308 562.878C216.277 562.878 215.47 563.39 214.887 564.415C214.305 565.427 214.014 566.985 214.014 569.091ZM217.308 575.305C218.353 575.305 219.167 574.8 219.75 573.788C220.333 572.763 220.624 571.197 220.624 569.091C220.624 567.304 220.437 565.919 220.064 564.935L215.089 574.225C215.627 574.945 216.366 575.305 217.308 575.305Z" fill="url(#paint16_linear_565_36968)" fill-opacity="0.6"/>
<path d="M218.652 598.89H221.946V599.992H213.409V598.89H217.218V587.21L213.588 589.226L212.96 588.291L217.442 585.714H218.652V598.89Z" fill="url(#paint17_linear_565_36968)" fill-opacity="0.6"/>
<path d="M217.308 609.257C218.906 609.257 220.116 609.888 220.938 611.149C221.774 612.396 222.192 614.211 222.192 616.594C222.192 618.977 221.774 620.798 220.938 622.059C220.116 623.32 218.906 623.95 217.308 623.95C215.724 623.95 214.514 623.32 213.677 622.059C212.841 620.798 212.423 618.977 212.423 616.594C212.423 614.224 212.841 612.409 213.677 611.149C214.514 609.888 215.724 609.257 217.308 609.257ZM214.014 616.594C214.014 618.284 214.178 619.607 214.507 620.563L219.481 611.356C218.958 610.705 218.234 610.38 217.308 610.38C216.277 610.38 215.47 610.892 214.887 611.918C214.305 612.929 214.014 614.488 214.014 616.594ZM217.308 622.807C218.353 622.807 219.167 622.302 219.75 621.29C220.333 620.265 220.624 618.699 220.624 616.594C220.624 614.806 220.437 613.421 220.064 612.437L215.089 621.727C215.627 622.447 216.366 622.807 217.308 622.807Z" fill="url(#paint18_linear_565_36968)" fill-opacity="0.6"/>
<path d="M218.652 646.392H221.946V647.494H213.409V646.392H217.218V634.713L213.588 636.728L212.96 635.793L217.442 633.216H218.652V646.392Z" fill="url(#paint19_linear_565_36968)" fill-opacity="0.6"/>
<path d="M217.308 656.76C218.906 656.76 220.116 657.39 220.938 658.651C221.774 659.898 222.192 661.713 222.192 664.096C222.192 666.479 221.774 668.301 220.938 669.561C220.116 670.822 218.906 671.453 217.308 671.453C215.724 671.453 214.514 670.822 213.677 669.561C212.841 668.301 212.423 666.479 212.423 664.096C212.423 661.726 212.841 659.911 213.677 658.651C214.514 657.39 215.724 656.76 217.308 656.76ZM214.014 664.096C214.014 665.786 214.178 667.109 214.507 668.065L219.481 658.859C218.958 658.207 218.234 657.882 217.308 657.882C216.277 657.882 215.47 658.394 214.887 659.42C214.305 660.431 214.014 661.99 214.014 664.096ZM217.308 670.31C218.353 670.31 219.167 669.804 219.75 668.792C220.333 667.767 220.624 666.202 220.624 664.096C220.624 662.308 220.437 660.923 220.064 659.939L215.089 669.229C215.627 669.949 216.366 670.31 217.308 670.31Z" fill="url(#paint20_linear_565_36968)" fill-opacity="0.6"/>
<path d="M217.308 680.511C218.906 680.511 220.116 681.141 220.938 682.402C221.774 683.649 222.192 685.464 222.192 687.847C222.192 690.23 221.774 692.052 220.938 693.312C220.116 694.573 218.906 695.204 217.308 695.204C215.724 695.204 214.514 694.573 213.677 693.312C212.841 692.052 212.423 690.23 212.423 687.847C212.423 685.478 212.841 683.663 213.677 682.402C214.514 681.141 215.724 680.511 217.308 680.511ZM214.014 687.847C214.014 689.537 214.178 690.86 214.507 691.816L219.481 682.61C218.958 681.958 218.234 681.633 217.308 681.633C216.277 681.633 215.47 682.145 214.887 683.171C214.305 684.182 214.014 685.741 214.014 687.847ZM217.308 694.061C218.353 694.061 219.167 693.555 219.75 692.543C220.333 691.518 220.624 689.953 220.624 687.847C220.624 686.059 220.437 684.674 220.064 683.69L215.089 692.98C215.627 693.7 216.366 694.061 217.308 694.061Z" fill="url(#paint21_linear_565_36968)" fill-opacity="0.6"/>
<path d="M218.652 717.645H221.946V718.747H213.409V717.645H217.218V705.966L213.588 707.982L212.96 707.046L217.442 704.469H218.652V717.645Z" fill="url(#paint22_linear_565_36968)" fill-opacity="0.6"/>
<path d="M217.308 728.013C218.906 728.013 220.116 728.643 220.938 729.904C221.774 731.151 222.192 732.966 222.192 735.349C222.192 737.732 221.774 739.554 220.938 740.815C220.116 742.075 218.906 742.706 217.308 742.706C215.724 742.706 214.514 742.075 213.677 740.815C212.841 739.554 212.423 737.732 212.423 735.349C212.423 732.98 212.841 731.165 213.677 729.904C214.514 728.643 215.724 728.013 217.308 728.013ZM214.014 735.349C214.014 737.039 214.178 738.362 214.507 739.318L219.481 730.112C218.958 729.461 218.234 729.135 217.308 729.135C216.277 729.135 215.47 729.648 214.887 730.673C214.305 731.684 214.014 733.243 214.014 735.349ZM217.308 741.563C218.353 741.563 219.167 741.057 219.75 740.046C220.333 739.02 220.624 737.455 220.624 735.349C220.624 733.562 220.437 732.176 220.064 731.192L215.089 740.482C215.627 741.202 216.366 741.563 217.308 741.563Z" fill="url(#paint23_linear_565_36968)" fill-opacity="0.6"/>
<path d="M218.652 765.147H221.946V766.249H213.409V765.147H217.218V753.468L213.588 755.484L212.96 754.549L217.442 751.972H218.652V765.147Z" fill="url(#paint24_linear_565_36968)" fill-opacity="0.6"/>
<path d="M218.652 788.899H221.946V790H213.409V788.899H217.218V777.219L213.588 779.235L212.96 778.3L217.442 775.723H218.652V788.899Z" fill="url(#paint25_linear_565_36968)" fill-opacity="0.6"/>
<path d="M154.885 514.253C156.483 514.253 157.693 514.884 158.515 516.144C159.352 517.391 159.77 519.206 159.77 521.589C159.77 523.972 159.352 525.794 158.515 527.055C157.693 528.316 156.483 528.946 154.885 528.946C153.301 528.946 152.091 528.316 151.255 527.055C150.418 525.794 150 523.972 150 521.589C150 519.22 150.418 517.405 151.255 516.144C152.091 514.884 153.301 514.253 154.885 514.253ZM151.591 521.589C151.591 523.28 151.755 524.603 152.084 525.559L157.059 516.352C156.536 515.701 155.811 515.375 154.885 515.375C153.854 515.375 153.048 515.888 152.465 516.913C151.882 517.925 151.591 519.483 151.591 521.589ZM154.885 527.803C155.931 527.803 156.745 527.297 157.327 526.286C157.91 525.261 158.201 523.695 158.201 521.589C158.201 519.802 158.015 518.417 157.641 517.433L152.667 526.722C153.204 527.443 153.944 527.803 154.885 527.803Z" fill="url(#paint26_linear_565_36968)" fill-opacity="0.6"/>
<path d="M154.885 538.004C156.483 538.004 157.693 538.635 158.515 539.895C159.352 541.142 159.77 542.957 159.77 545.34C159.77 547.723 159.352 549.545 158.515 550.806C157.693 552.067 156.483 552.697 154.885 552.697C153.301 552.697 152.091 552.067 151.255 550.806C150.418 549.545 150 547.723 150 545.34C150 542.971 150.418 541.156 151.255 539.895C152.091 538.635 153.301 538.004 154.885 538.004ZM151.591 545.34C151.591 547.031 151.755 548.354 152.084 549.31L157.059 540.103C156.536 539.452 155.811 539.126 154.885 539.126C153.854 539.126 153.048 539.639 152.465 540.664C151.882 541.676 151.591 543.234 151.591 545.34ZM154.885 551.554C155.931 551.554 156.745 551.049 157.327 550.037C157.91 549.012 158.201 547.446 158.201 545.34C158.201 543.553 158.015 542.168 157.641 541.184L152.667 550.474C153.204 551.194 153.944 551.554 154.885 551.554Z" fill="url(#paint27_linear_565_36968)" fill-opacity="0.6"/>
<path d="M156.229 575.139H159.523V576.24H150.986V575.139H154.795V563.459L151.165 565.475L150.538 564.54L155.019 561.963H156.229V575.139Z" fill="url(#paint28_linear_565_36968)" fill-opacity="0.6"/>
<path d="M154.885 585.506C156.483 585.506 157.693 586.137 158.515 587.398C159.352 588.644 159.77 590.459 159.77 592.842C159.77 595.225 159.352 597.047 158.515 598.308C157.693 599.569 156.483 600.199 154.885 600.199C153.301 600.199 152.091 599.569 151.255 598.308C150.418 597.047 150 595.225 150 592.842C150 590.473 150.418 588.658 151.255 587.398C152.091 586.137 153.301 585.506 154.885 585.506ZM151.591 592.842C151.591 594.533 151.755 595.856 152.084 596.812L157.059 587.605C156.536 586.954 155.811 586.629 154.885 586.629C153.854 586.629 153.048 587.141 152.465 588.166C151.882 589.178 151.591 590.737 151.591 592.842ZM154.885 599.056C155.931 599.056 156.745 598.551 157.327 597.539C157.91 596.514 158.201 594.948 158.201 592.842C158.201 591.055 158.015 589.67 157.641 588.686L152.667 597.976C153.204 598.696 153.944 599.056 154.885 599.056Z" fill="url(#paint29_linear_565_36968)" fill-opacity="0.6"/>
<path d="M156.229 622.641H159.523V623.743H150.986V622.641H154.795V610.962L151.165 612.977L150.538 612.042L155.019 609.465H156.229V622.641Z" fill="url(#paint30_linear_565_36968)" fill-opacity="0.6"/>
<path d="M156.229 646.392H159.523V647.494H150.986V646.392H154.795V634.713L151.165 636.728L150.538 635.793L155.019 633.216H156.229V646.392Z" fill="url(#paint31_linear_565_36968)" fill-opacity="0.6"/>
<path d="M197.844 480.135H201.138V481.236H192.601V480.135H196.41V468.455L192.78 470.471L192.153 469.536L196.634 466.959H197.844V480.135Z" fill="url(#paint32_linear_565_36968)" fill-opacity="0.6"/>
<path d="M196.5 490.502C198.098 490.502 199.308 491.133 200.13 492.393C200.967 493.64 201.385 495.455 201.385 497.838C201.385 500.221 200.967 502.043 200.13 503.304C199.308 504.565 198.098 505.195 196.5 505.195C194.916 505.195 193.706 504.565 192.87 503.304C192.033 502.043 191.615 500.221 191.615 497.838C191.615 495.469 192.033 493.654 192.87 492.393C193.706 491.133 194.916 490.502 196.5 490.502ZM193.206 497.838C193.206 499.529 193.37 500.852 193.699 501.808L198.674 492.601C198.151 491.95 197.426 491.624 196.5 491.624C195.469 491.624 194.663 492.137 194.08 493.162C193.497 494.174 193.206 495.732 193.206 497.838ZM196.5 504.052C197.546 504.052 198.36 503.546 198.942 502.535C199.525 501.51 199.816 499.944 199.816 497.838C199.816 496.051 199.63 494.665 199.256 493.682L194.282 502.971C194.819 503.692 195.559 504.052 196.5 504.052Z" fill="url(#paint33_linear_565_36968)" fill-opacity="0.6"/>
<path d="M197.844 527.637H201.138V528.738H192.601V527.637H196.41V515.957L192.78 517.973L192.153 517.038L196.634 514.461H197.844V527.637Z" fill="url(#paint34_linear_565_36968)" fill-opacity="0.6"/>
<path d="M197.844 551.388H201.138V552.489H192.601V551.388H196.41V539.708L192.78 541.724L192.153 540.789L196.634 538.212H197.844V551.388Z" fill="url(#paint35_linear_565_36968)" fill-opacity="0.6"/>
<path d="M196.5 561.755C198.098 561.755 199.308 562.386 200.13 563.646C200.967 564.893 201.385 566.708 201.385 569.091C201.385 571.474 200.967 573.296 200.13 574.557C199.308 575.818 198.098 576.448 196.5 576.448C194.916 576.448 193.706 575.818 192.87 574.557C192.033 573.296 191.615 571.474 191.615 569.091C191.615 566.722 192.033 564.907 192.87 563.646C193.706 562.386 194.916 561.755 196.5 561.755ZM193.206 569.091C193.206 570.782 193.37 572.105 193.699 573.061L198.674 563.854C198.151 563.203 197.426 562.878 196.5 562.878C195.469 562.878 194.663 563.39 194.08 564.415C193.497 565.427 193.206 566.985 193.206 569.091ZM196.5 575.305C197.546 575.305 198.36 574.8 198.942 573.788C199.525 572.763 199.816 571.197 199.816 569.091C199.816 567.304 199.63 565.919 199.256 564.935L194.282 574.225C194.819 574.945 195.559 575.305 196.5 575.305Z" fill="url(#paint36_linear_565_36968)" fill-opacity="0.6"/>
<path d="M197.844 598.89H201.138V599.992H192.601V598.89H196.41V587.21L192.78 589.226L192.153 588.291L196.634 585.714H197.844V598.89Z" fill="url(#paint37_linear_565_36968)" fill-opacity="0.6"/>
<path d="M197.844 622.641H201.138V623.743H192.601V622.641H196.41V610.962L192.78 612.977L192.153 612.042L196.634 609.465H197.844V622.641Z" fill="url(#paint38_linear_565_36968)" fill-opacity="0.6"/>
<path d="M196.5 633.008C198.098 633.008 199.308 633.639 200.13 634.9C200.967 636.147 201.385 637.962 201.385 640.345C201.385 642.728 200.967 644.549 200.13 645.81C199.308 647.071 198.098 647.701 196.5 647.701C194.916 647.701 193.706 647.071 192.87 645.81C192.033 644.549 191.615 642.728 191.615 640.345C191.615 637.975 192.033 636.16 192.87 634.9C193.706 633.639 194.916 633.008 196.5 633.008ZM193.206 640.345C193.206 642.035 193.37 643.358 193.699 644.314L198.674 635.107C198.151 634.456 197.426 634.131 196.5 634.131C195.469 634.131 194.663 634.643 194.08 635.669C193.497 636.68 193.206 638.239 193.206 640.345ZM196.5 646.558C197.546 646.558 198.36 646.053 198.942 645.041C199.525 644.016 199.816 642.451 199.816 640.345C199.816 638.557 199.63 637.172 199.256 636.188L194.282 645.478C194.819 646.198 195.559 646.558 196.5 646.558Z" fill="url(#paint39_linear_565_36968)" fill-opacity="0.6"/>
<path d="M197.844 670.143H201.138V671.245H192.601V670.143H196.41V658.464L192.78 660.48L192.153 659.544L196.634 656.967H197.844V670.143Z" fill="url(#paint40_linear_565_36968)" fill-opacity="0.6"/>
<path d="M196.5 680.511C198.098 680.511 199.308 681.141 200.13 682.402C200.967 683.649 201.385 685.464 201.385 687.847C201.385 690.23 200.967 692.052 200.13 693.312C199.308 694.573 198.098 695.204 196.5 695.204C194.916 695.204 193.706 694.573 192.87 693.312C192.033 692.052 191.615 690.23 191.615 687.847C191.615 685.478 192.033 683.663 192.87 682.402C193.706 681.141 194.916 680.511 196.5 680.511ZM193.206 687.847C193.206 689.537 193.37 690.86 193.699 691.816L198.674 682.61C198.151 681.958 197.426 681.633 196.5 681.633C195.469 681.633 194.663 682.145 194.08 683.171C193.497 684.182 193.206 685.741 193.206 687.847ZM196.5 694.061C197.546 694.061 198.36 693.555 198.942 692.543C199.525 691.518 199.816 689.953 199.816 687.847C199.816 686.059 199.63 684.674 199.256 683.69L194.282 692.98C194.819 693.7 195.559 694.061 196.5 694.061Z" fill="url(#paint41_linear_565_36968)" fill-opacity="0.6"/>
<path d="M238.115 466.751C239.713 466.751 240.924 467.381 241.745 468.642C242.582 469.889 243 471.704 243 474.087C243 476.47 242.582 478.292 241.745 479.553C240.924 480.814 239.713 481.444 238.115 481.444C236.532 481.444 235.321 480.814 234.485 479.553C233.648 478.292 233.23 476.47 233.23 474.087C233.23 471.718 233.648 469.903 234.485 468.642C235.321 467.381 236.532 466.751 238.115 466.751ZM234.821 474.087C234.821 475.777 234.985 477.101 235.314 478.057L240.289 468.85C239.766 468.199 239.041 467.873 238.115 467.873C237.084 467.873 236.278 468.386 235.695 469.411C235.112 470.423 234.821 471.981 234.821 474.087ZM238.115 480.301C239.161 480.301 239.975 479.795 240.558 478.784C241.14 477.759 241.431 476.193 241.431 474.087C241.431 472.3 241.245 470.914 240.871 469.931L235.897 479.22C236.434 479.941 237.174 480.301 238.115 480.301Z" fill="url(#paint42_linear_565_36968)" fill-opacity="0.6"/>
<path d="M239.46 503.886H242.754V504.987H234.216V503.886H238.025V492.206L234.395 494.222L233.768 493.287L238.249 490.71H239.46V503.886Z" fill="url(#paint43_linear_565_36968)" fill-opacity="0.6"/>
<path d="M239.46 527.637H242.754V528.738H234.216V527.637H238.025V515.957L234.395 517.973L233.768 517.038L238.249 514.461H239.46V527.637Z" fill="url(#paint44_linear_565_36968)" fill-opacity="0.6"/>
<path d="M238.115 538.004C239.713 538.004 240.924 538.635 241.745 539.895C242.582 541.142 243 542.957 243 545.34C243 547.723 242.582 549.545 241.745 550.806C240.924 552.067 239.713 552.697 238.115 552.697C236.532 552.697 235.321 552.067 234.485 550.806C233.648 549.545 233.23 547.723 233.23 545.34C233.23 542.971 233.648 541.156 234.485 539.895C235.321 538.635 236.532 538.004 238.115 538.004ZM234.821 545.34C234.821 547.031 234.985 548.354 235.314 549.31L240.289 540.103C239.766 539.452 239.041 539.126 238.115 539.126C237.084 539.126 236.278 539.639 235.695 540.664C235.112 541.676 234.821 543.234 234.821 545.34ZM238.115 551.554C239.161 551.554 239.975 551.049 240.558 550.037C241.14 549.012 241.431 547.446 241.431 545.34C241.431 543.553 241.245 542.168 240.871 541.184L235.897 550.474C236.434 551.194 237.174 551.554 238.115 551.554Z" fill="url(#paint45_linear_565_36968)" fill-opacity="0.6"/>
<path d="M238.115 561.755C239.713 561.755 240.924 562.386 241.745 563.646C242.582 564.893 243 566.708 243 569.091C243 571.474 242.582 573.296 241.745 574.557C240.924 575.818 239.713 576.448 238.115 576.448C236.532 576.448 235.321 575.818 234.485 574.557C233.648 573.296 233.23 571.474 233.23 569.091C233.23 566.722 233.648 564.907 234.485 563.646C235.321 562.386 236.532 561.755 238.115 561.755ZM234.821 569.091C234.821 570.782 234.985 572.105 235.314 573.061L240.289 563.854C239.766 563.203 239.041 562.878 238.115 562.878C237.084 562.878 236.278 563.39 235.695 564.415C235.112 565.427 234.821 566.985 234.821 569.091ZM238.115 575.305C239.161 575.305 239.975 574.8 240.558 573.788C241.14 572.763 241.431 571.197 241.431 569.091C241.431 567.304 241.245 565.919 240.871 564.935L235.897 574.225C236.434 574.945 237.174 575.305 238.115 575.305Z" fill="url(#paint46_linear_565_36968)" fill-opacity="0.6"/>
<g opacity="0.6">
<path d="M1130.93 150C1132.36 150 1133.44 150.605 1134.17 151.815C1134.92 153.011 1135.29 154.753 1135.29 157.04C1135.29 159.327 1134.92 161.075 1134.17 162.285C1133.44 163.495 1132.36 164.1 1130.93 164.1C1129.52 164.1 1128.44 163.495 1127.69 162.285C1126.94 161.075 1126.57 159.327 1126.57 157.04C1126.57 154.767 1126.94 153.025 1127.69 151.815C1128.44 150.605 1129.52 150 1130.93 150ZM1127.99 157.04C1127.99 158.662 1128.14 159.932 1128.43 160.849L1132.87 152.014C1132.4 151.389 1131.76 151.077 1130.93 151.077C1130.01 151.077 1129.29 151.569 1128.77 152.553C1128.25 153.523 1127.99 155.019 1127.99 157.04ZM1130.93 163.003C1131.86 163.003 1132.59 162.518 1133.11 161.547C1133.63 160.564 1133.89 159.061 1133.89 157.04C1133.89 155.325 1133.72 153.995 1133.39 153.051L1128.95 161.966C1129.43 162.658 1130.09 163.003 1130.93 163.003Z" fill="url(#paint47_linear_565_36968)"/>
<path d="M1132.13 185.637H1135.07V186.694H1127.45V185.637H1130.85V174.428L1127.61 176.363L1127.05 175.465L1131.05 172.992H1132.13V185.637Z" fill="url(#paint48_linear_565_36968)"/>
<path d="M1130.93 195.586C1132.36 195.586 1133.44 196.191 1134.17 197.4C1134.92 198.597 1135.29 200.339 1135.29 202.626C1135.29 204.913 1134.92 206.661 1134.17 207.871C1133.44 209.081 1132.36 209.686 1130.93 209.686C1129.52 209.686 1128.44 209.081 1127.69 207.871C1126.94 206.661 1126.57 204.913 1126.57 202.626C1126.57 200.352 1126.94 198.61 1127.69 197.4C1128.44 196.191 1129.52 195.586 1130.93 195.586ZM1127.99 202.626C1127.99 204.248 1128.14 205.518 1128.43 206.435L1132.87 197.6C1132.4 196.975 1131.76 196.663 1130.93 196.663C1130.01 196.663 1129.29 197.155 1128.77 198.138C1128.25 199.109 1127.99 200.605 1127.99 202.626ZM1130.93 208.589C1131.86 208.589 1132.59 208.104 1133.11 207.133C1133.63 206.149 1133.89 204.647 1133.89 202.626C1133.89 200.911 1133.72 199.581 1133.39 198.637L1128.95 207.552C1129.43 208.243 1130.09 208.589 1130.93 208.589Z" fill="url(#paint49_linear_565_36968)"/>
<path d="M1132.13 231.222H1135.07V232.279H1127.45V231.222H1130.85V220.014L1127.61 221.948L1127.05 221.051L1131.05 218.578H1132.13V231.222Z" fill="url(#paint50_linear_565_36968)"/>
<path d="M1132.13 254.015H1135.07V255.072H1127.45V254.015H1130.85V242.807L1127.61 244.741L1127.05 243.844L1131.05 241.371H1132.13V254.015Z" fill="url(#paint51_linear_565_36968)"/>
<path d="M1130.93 263.964C1132.36 263.964 1133.44 264.569 1134.17 265.779C1134.92 266.976 1135.29 268.717 1135.29 271.004C1135.29 273.291 1134.92 275.039 1134.17 276.249C1133.44 277.459 1132.36 278.064 1130.93 278.064C1129.52 278.064 1128.44 277.459 1127.69 276.249C1126.94 275.039 1126.57 273.291 1126.57 271.004C1126.57 268.731 1126.94 266.989 1127.69 265.779C1128.44 264.569 1129.52 263.964 1130.93 263.964ZM1127.99 271.004C1127.99 272.626 1128.14 273.896 1128.43 274.813L1132.87 265.978C1132.4 265.353 1131.76 265.041 1130.93 265.041C1130.01 265.041 1129.29 265.533 1128.77 266.517C1128.25 267.487 1127.99 268.983 1127.99 271.004ZM1130.93 276.967C1131.86 276.967 1132.59 276.482 1133.11 275.511C1133.63 274.528 1133.89 273.025 1133.89 271.004C1133.89 269.289 1133.72 267.959 1133.39 267.015L1128.95 275.93C1129.43 276.622 1130.09 276.967 1130.93 276.967Z" fill="url(#paint52_linear_565_36968)"/>
<path d="M1132.13 299.601H1135.07V300.658H1127.45V299.601H1130.85V288.392L1127.61 290.327L1127.05 289.429L1131.05 286.956H1132.13V299.601Z" fill="url(#paint53_linear_565_36968)"/>
<path d="M1130.93 309.55C1132.36 309.55 1133.44 310.155 1134.17 311.365C1134.92 312.561 1135.29 314.303 1135.29 316.59C1135.29 318.877 1134.92 320.625 1134.17 321.835C1133.44 323.045 1132.36 323.65 1130.93 323.65C1129.52 323.65 1128.44 323.045 1127.69 321.835C1126.94 320.625 1126.57 318.877 1126.57 316.59C1126.57 314.316 1126.94 312.574 1127.69 311.365C1128.44 310.155 1129.52 309.55 1130.93 309.55ZM1127.99 316.59C1127.99 318.212 1128.14 319.482 1128.43 320.399L1132.87 311.564C1132.4 310.939 1131.76 310.627 1130.93 310.627C1130.01 310.627 1129.29 311.119 1128.77 312.102C1128.25 313.073 1127.99 314.569 1127.99 316.59ZM1130.93 322.553C1131.86 322.553 1132.59 322.068 1133.11 321.097C1133.63 320.113 1133.89 318.611 1133.89 316.59C1133.89 314.875 1133.72 313.545 1133.39 312.601L1128.95 321.516C1129.43 322.207 1130.09 322.553 1130.93 322.553Z" fill="url(#paint54_linear_565_36968)"/>
<path d="M1130.93 332.342C1132.36 332.342 1133.44 332.947 1134.17 334.157C1134.92 335.354 1135.29 337.096 1135.29 339.383C1135.29 341.669 1134.92 343.418 1134.17 344.628C1133.44 345.838 1132.36 346.443 1130.93 346.443C1129.52 346.443 1128.44 345.838 1127.69 344.628C1126.94 343.418 1126.57 341.669 1126.57 339.383C1126.57 337.109 1126.94 335.367 1127.69 334.157C1128.44 332.947 1129.52 332.342 1130.93 332.342ZM1127.99 339.383C1127.99 341.005 1128.14 342.274 1128.43 343.192L1132.87 334.357C1132.4 333.732 1131.76 333.419 1130.93 333.419C1130.01 333.419 1129.29 333.911 1128.77 334.895C1128.25 335.866 1127.99 337.362 1127.99 339.383ZM1130.93 345.346C1131.86 345.346 1132.59 344.86 1133.11 343.89C1133.63 342.906 1133.89 341.404 1133.89 339.383C1133.89 337.667 1133.72 336.338 1133.39 335.394L1128.95 344.309C1129.43 345 1130.09 345.346 1130.93 345.346Z" fill="url(#paint55_linear_565_36968)"/>
<path d="M1132.13 367.979H1135.07V369.036H1127.45V367.979H1130.85V356.771L1127.61 358.705L1127.05 357.808L1131.05 355.335H1132.13V367.979Z" fill="url(#paint56_linear_565_36968)"/>
<path d="M1130.93 377.928C1132.36 377.928 1133.44 378.533 1134.17 379.743C1134.92 380.94 1135.29 382.681 1135.29 384.968C1135.29 387.255 1134.92 389.003 1134.17 390.213C1133.44 391.423 1132.36 392.028 1130.93 392.028C1129.52 392.028 1128.44 391.423 1127.69 390.213C1126.94 389.003 1126.57 387.255 1126.57 384.968C1126.57 382.695 1126.94 380.953 1127.69 379.743C1128.44 378.533 1129.52 377.928 1130.93 377.928ZM1127.99 384.968C1127.99 386.59 1128.14 387.86 1128.43 388.777L1132.87 379.942C1132.4 379.317 1131.76 379.005 1130.93 379.005C1130.01 379.005 1129.29 379.497 1128.77 380.481C1128.25 381.451 1127.99 382.947 1127.99 384.968ZM1130.93 390.931C1131.86 390.931 1132.59 390.446 1133.11 389.475C1133.63 388.492 1133.89 386.989 1133.89 384.968C1133.89 383.253 1133.72 381.923 1133.39 380.979L1128.95 389.894C1129.43 390.586 1130.09 390.931 1130.93 390.931Z" fill="url(#paint57_linear_565_36968)"/>
<path d="M1132.13 413.565H1135.07V414.622H1127.45V413.565H1130.85V402.356L1127.61 404.291L1127.05 403.393L1131.05 400.92H1132.13V413.565Z" fill="url(#paint58_linear_565_36968)"/>
<path d="M1132.13 436.357H1135.07V437.414H1127.45V436.357H1130.85V425.149L1127.61 427.084L1127.05 426.186L1131.05 423.713H1132.13V436.357Z" fill="url(#paint59_linear_565_36968)"/>
<path d="M1168.07 195.586C1169.5 195.586 1170.58 196.191 1171.31 197.4C1172.06 198.597 1172.43 200.339 1172.43 202.626C1172.43 204.913 1172.06 206.661 1171.31 207.871C1170.58 209.081 1169.5 209.686 1168.07 209.686C1166.66 209.686 1165.58 209.081 1164.83 207.871C1164.08 206.661 1163.71 204.913 1163.71 202.626C1163.71 200.352 1164.08 198.61 1164.83 197.4C1165.58 196.191 1166.66 195.586 1168.07 195.586ZM1165.13 202.626C1165.13 204.248 1165.28 205.518 1165.57 206.435L1170.01 197.6C1169.54 196.975 1168.9 196.663 1168.07 196.663C1167.15 196.663 1166.43 197.155 1165.91 198.138C1165.39 199.109 1165.13 200.605 1165.13 202.626ZM1168.07 208.589C1169 208.589 1169.73 208.104 1170.25 207.133C1170.77 206.149 1171.03 204.647 1171.03 202.626C1171.03 200.911 1170.86 199.581 1170.53 198.637L1166.09 207.552C1166.57 208.243 1167.23 208.589 1168.07 208.589Z" fill="url(#paint60_linear_565_36968)"/>
<path d="M1169.27 231.222H1172.21V232.279H1164.59V231.222H1167.99V220.014L1164.75 221.948L1164.19 221.051L1168.19 218.578H1169.27V231.222Z" fill="url(#paint61_linear_565_36968)"/>
<path d="M1168.07 241.171C1169.5 241.171 1170.58 241.776 1171.31 242.986C1172.06 244.183 1172.43 245.924 1172.43 248.211C1172.43 250.498 1172.06 252.247 1171.31 253.457C1170.58 254.666 1169.5 255.271 1168.07 255.271C1166.66 255.271 1165.58 254.666 1164.83 253.457C1164.08 252.247 1163.71 250.498 1163.71 248.211C1163.71 245.938 1164.08 244.196 1164.83 242.986C1165.58 241.776 1166.66 241.171 1168.07 241.171ZM1165.13 248.211C1165.13 249.833 1165.28 251.103 1165.57 252.021L1170.01 243.186C1169.54 242.561 1168.9 242.248 1168.07 242.248C1167.15 242.248 1166.43 242.74 1165.91 243.724C1165.39 244.695 1165.13 246.19 1165.13 248.211ZM1168.07 254.174C1169 254.174 1169.73 253.689 1170.25 252.719C1170.77 251.735 1171.03 250.232 1171.03 248.211C1171.03 246.496 1170.86 245.167 1170.53 244.223L1166.09 253.137C1166.57 253.829 1167.23 254.174 1168.07 254.174Z" fill="url(#paint62_linear_565_36968)"/>
<path d="M1168.07 263.964C1169.5 263.964 1170.58 264.569 1171.31 265.779C1172.06 266.976 1172.43 268.717 1172.43 271.004C1172.43 273.291 1172.06 275.039 1171.31 276.249C1170.58 277.459 1169.5 278.064 1168.07 278.064C1166.66 278.064 1165.58 277.459 1164.83 276.249C1164.08 275.039 1163.71 273.291 1163.71 271.004C1163.71 268.731 1164.08 266.989 1164.83 265.779C1165.58 264.569 1166.66 263.964 1168.07 263.964ZM1165.13 271.004C1165.13 272.626 1165.28 273.896 1165.57 274.813L1170.01 265.978C1169.54 265.353 1168.9 265.041 1168.07 265.041C1167.15 265.041 1166.43 265.533 1165.91 266.517C1165.39 267.487 1165.13 268.983 1165.13 271.004ZM1168.07 276.967C1169 276.967 1169.73 276.482 1170.25 275.511C1170.77 274.528 1171.03 273.025 1171.03 271.004C1171.03 269.289 1170.86 267.959 1170.53 267.015L1166.09 275.93C1166.57 276.622 1167.23 276.967 1168.07 276.967Z" fill="url(#paint63_linear_565_36968)"/>
<path d="M1169.27 299.601H1172.21V300.658H1164.59V299.601H1167.99V288.392L1164.75 290.327L1164.19 289.429L1168.19 286.956H1169.27V299.601Z" fill="url(#paint64_linear_565_36968)"/>
<path d="M1168.07 309.55C1169.5 309.55 1170.58 310.155 1171.31 311.365C1172.06 312.561 1172.43 314.303 1172.43 316.59C1172.43 318.877 1172.06 320.625 1171.31 321.835C1170.58 323.045 1169.5 323.65 1168.07 323.65C1166.66 323.65 1165.58 323.045 1164.83 321.835C1164.08 320.625 1163.71 318.877 1163.71 316.59C1163.71 314.316 1164.08 312.574 1164.83 311.365C1165.58 310.155 1166.66 309.55 1168.07 309.55ZM1165.13 316.59C1165.13 318.212 1165.28 319.482 1165.57 320.399L1170.01 311.564C1169.54 310.939 1168.9 310.627 1168.07 310.627C1167.15 310.627 1166.43 311.119 1165.91 312.102C1165.39 313.073 1165.13 314.569 1165.13 316.59ZM1168.07 322.553C1169 322.553 1169.73 322.068 1170.25 321.097C1170.77 320.113 1171.03 318.611 1171.03 316.59C1171.03 314.875 1170.86 313.545 1170.53 312.601L1166.09 321.516C1166.57 322.207 1167.23 322.553 1168.07 322.553Z" fill="url(#paint65_linear_565_36968)"/>
<path d="M1169.27 345.186H1172.21V346.243H1164.59V345.186H1167.99V333.978L1164.75 335.912L1164.19 335.015L1168.19 332.542H1169.27V345.186Z" fill="url(#paint66_linear_565_36968)"/>
<path d="M1168.07 355.135C1169.5 355.135 1170.58 355.74 1171.31 356.95C1172.06 358.147 1172.43 359.888 1172.43 362.175C1172.43 364.462 1172.06 366.211 1171.31 367.421C1170.58 368.63 1169.5 369.235 1168.07 369.235C1166.66 369.235 1165.58 368.63 1164.83 367.421C1164.08 366.211 1163.71 364.462 1163.71 362.175C1163.71 359.902 1164.08 358.16 1164.83 356.95C1165.58 355.74 1166.66 355.135 1168.07 355.135ZM1165.13 362.175C1165.13 363.797 1165.28 365.067 1165.57 365.985L1170.01 357.15C1169.54 356.525 1168.9 356.212 1168.07 356.212C1167.15 356.212 1166.43 356.704 1165.91 357.688C1165.39 358.659 1165.13 360.154 1165.13 362.175ZM1168.07 368.139C1169 368.139 1169.73 367.653 1170.25 366.683C1170.77 365.699 1171.03 364.196 1171.03 362.175C1171.03 360.46 1170.86 359.131 1170.53 358.187L1166.09 367.101C1166.57 367.793 1167.23 368.139 1168.07 368.139Z" fill="url(#paint67_linear_565_36968)"/>
<path d="M1168.07 377.928C1169.5 377.928 1170.58 378.533 1171.31 379.743C1172.06 380.94 1172.43 382.681 1172.43 384.968C1172.43 387.255 1172.06 389.003 1171.31 390.213C1170.58 391.423 1169.5 392.028 1168.07 392.028C1166.66 392.028 1165.58 391.423 1164.83 390.213C1164.08 389.003 1163.71 387.255 1163.71 384.968C1163.71 382.695 1164.08 380.953 1164.83 379.743C1165.58 378.533 1166.66 377.928 1168.07 377.928ZM1165.13 384.968C1165.13 386.59 1165.28 387.86 1165.57 388.777L1170.01 379.942C1169.54 379.317 1168.9 379.005 1168.07 379.005C1167.15 379.005 1166.43 379.497 1165.91 380.481C1165.39 381.451 1165.13 382.947 1165.13 384.968ZM1168.07 390.931C1169 390.931 1169.73 390.446 1170.25 389.475C1170.77 388.492 1171.03 386.989 1171.03 384.968C1171.03 383.253 1170.86 381.923 1170.53 380.979L1166.09 389.894C1166.57 390.586 1167.23 390.931 1168.07 390.931Z" fill="url(#paint68_linear_565_36968)"/>
<path d="M1169.27 413.565H1172.21V414.622H1164.59V413.565H1167.99V402.356L1164.75 404.291L1164.19 403.393L1168.19 400.92H1169.27V413.565Z" fill="url(#paint69_linear_565_36968)"/>
<path d="M1168.07 423.514C1169.5 423.514 1170.58 424.119 1171.31 425.329C1172.06 426.525 1172.43 428.267 1172.43 430.554C1172.43 432.841 1172.06 434.589 1171.31 435.799C1170.58 437.009 1169.5 437.614 1168.07 437.614C1166.66 437.614 1165.58 437.009 1164.83 435.799C1164.08 434.589 1163.71 432.841 1163.71 430.554C1163.71 428.28 1164.08 426.538 1164.83 425.329C1165.58 424.119 1166.66 423.514 1168.07 423.514ZM1165.13 430.554C1165.13 432.176 1165.28 433.446 1165.57 434.363L1170.01 425.528C1169.54 424.903 1168.9 424.591 1168.07 424.591C1167.15 424.591 1166.43 425.083 1165.91 426.066C1165.39 427.037 1165.13 428.533 1165.13 430.554ZM1168.07 436.517C1169 436.517 1169.73 436.032 1170.25 435.061C1170.77 434.077 1171.03 432.575 1171.03 430.554C1171.03 428.839 1170.86 427.509 1170.53 426.565L1166.09 435.48C1166.57 436.171 1167.23 436.517 1168.07 436.517Z" fill="url(#paint70_linear_565_36968)"/>
<path d="M1169.27 459.15H1172.21V460.207H1164.59V459.15H1167.99V447.942L1164.75 449.876L1164.19 448.979L1168.19 446.506H1169.27V459.15Z" fill="url(#paint71_linear_565_36968)"/>
<path d="M1169.27 481.943H1172.21V483H1164.59V481.943H1167.99V470.735L1164.75 472.669L1164.19 471.772L1168.19 469.299H1169.27V481.943Z" fill="url(#paint72_linear_565_36968)"/>
<path d="M1112.36 218.378C1113.79 218.378 1114.87 218.983 1115.6 220.193C1116.35 221.39 1116.72 223.132 1116.72 225.419C1116.72 227.705 1116.35 229.454 1115.6 230.664C1114.87 231.874 1113.79 232.479 1112.36 232.479C1110.95 232.479 1109.87 231.874 1109.12 230.664C1108.37 229.454 1108 227.705 1108 225.419C1108 223.145 1108.37 221.403 1109.12 220.193C1109.87 218.983 1110.95 218.378 1112.36 218.378ZM1109.42 225.419C1109.42 227.041 1109.57 228.31 1109.86 229.228L1114.3 220.393C1113.83 219.768 1113.19 219.455 1112.36 219.455C1111.44 219.455 1110.72 219.947 1110.2 220.931C1109.68 221.902 1109.42 223.398 1109.42 225.419ZM1112.36 231.382C1113.29 231.382 1114.02 230.896 1114.54 229.926C1115.06 228.942 1115.32 227.439 1115.32 225.419C1115.32 223.703 1115.15 222.374 1114.82 221.43L1110.38 230.345C1110.86 231.036 1111.52 231.382 1112.36 231.382Z" fill="url(#paint73_linear_565_36968)"/>
<path d="M1112.36 241.171C1113.79 241.171 1114.87 241.776 1115.6 242.986C1116.35 244.183 1116.72 245.924 1116.72 248.211C1116.72 250.498 1116.35 252.247 1115.6 253.457C1114.87 254.666 1113.79 255.271 1112.36 255.271C1110.95 255.271 1109.87 254.666 1109.12 253.457C1108.37 252.247 1108 250.498 1108 248.211C1108 245.938 1108.37 244.196 1109.12 242.986C1109.87 241.776 1110.95 241.171 1112.36 241.171ZM1109.42 248.211C1109.42 249.833 1109.57 251.103 1109.86 252.021L1114.3 243.186C1113.83 242.561 1113.19 242.248 1112.36 242.248C1111.44 242.248 1110.72 242.74 1110.2 243.724C1109.68 244.695 1109.42 246.19 1109.42 248.211ZM1112.36 254.174C1113.29 254.174 1114.02 253.689 1114.54 252.719C1115.06 251.735 1115.32 250.232 1115.32 248.211C1115.32 246.496 1115.15 245.167 1114.82 244.223L1110.38 253.137C1110.86 253.829 1111.52 254.174 1112.36 254.174Z" fill="url(#paint74_linear_565_36968)"/>
<path d="M1113.56 276.808H1116.5V277.865H1108.88V276.808H1112.28V265.599L1109.04 267.534L1108.48 266.636L1112.48 264.163H1113.56V276.808Z" fill="url(#paint75_linear_565_36968)"/>
<path d="M1112.36 286.757C1113.79 286.757 1114.87 287.362 1115.6 288.572C1116.35 289.768 1116.72 291.51 1116.72 293.797C1116.72 296.084 1116.35 297.832 1115.6 299.042C1114.87 300.252 1113.79 300.857 1112.36 300.857C1110.95 300.857 1109.87 300.252 1109.12 299.042C1108.37 297.832 1108 296.084 1108 293.797C1108 291.523 1108.37 289.782 1109.12 288.572C1109.87 287.362 1110.95 286.757 1112.36 286.757ZM1109.42 293.797C1109.42 295.419 1109.57 296.689 1109.86 297.606L1114.3 288.771C1113.83 288.146 1113.19 287.834 1112.36 287.834C1111.44 287.834 1110.72 288.326 1110.2 289.31C1109.68 290.28 1109.42 291.776 1109.42 293.797ZM1112.36 299.76C1113.29 299.76 1114.02 299.275 1114.54 298.304C1115.06 297.32 1115.32 295.818 1115.32 293.797C1115.32 292.082 1115.15 290.752 1114.82 289.808L1110.38 298.723C1110.86 299.414 1111.52 299.76 1112.36 299.76Z" fill="url(#paint76_linear_565_36968)"/>
<path d="M1113.56 322.393H1116.5V323.45H1108.88V322.393H1112.28V311.185L1109.04 313.12L1108.48 312.222L1112.48 309.749H1113.56V322.393Z" fill="url(#paint77_linear_565_36968)"/>
<path d="M1113.56 345.186H1116.5V346.243H1108.88V345.186H1112.28V333.978L1109.04 335.912L1108.48 335.015L1112.48 332.542H1113.56V345.186Z" fill="url(#paint78_linear_565_36968)"/>
<path d="M1150.7 185.637H1153.64V186.694H1146.02V185.637H1149.42V174.428L1146.18 176.363L1145.62 175.465L1149.62 172.992H1150.7V185.637Z" fill="url(#paint79_linear_565_36968)"/>
<path d="M1149.5 195.586C1150.93 195.586 1152.01 196.191 1152.74 197.4C1153.49 198.597 1153.86 200.339 1153.86 202.626C1153.86 204.913 1153.49 206.661 1152.74 207.871C1152.01 209.081 1150.93 209.686 1149.5 209.686C1148.09 209.686 1147.01 209.081 1146.26 207.871C1145.51 206.661 1145.14 204.913 1145.14 202.626C1145.14 200.352 1145.51 198.61 1146.26 197.4C1147.01 196.191 1148.09 195.586 1149.5 195.586ZM1146.56 202.626C1146.56 204.248 1146.71 205.518 1147 206.435L1151.44 197.6C1150.97 196.975 1150.33 196.663 1149.5 196.663C1148.58 196.663 1147.86 197.155 1147.34 198.138C1146.82 199.109 1146.56 200.605 1146.56 202.626ZM1149.5 208.589C1150.43 208.589 1151.16 208.104 1151.68 207.133C1152.2 206.149 1152.46 204.647 1152.46 202.626C1152.46 200.911 1152.29 199.581 1151.96 198.637L1147.52 207.552C1148 208.243 1148.66 208.589 1149.5 208.589Z" fill="url(#paint80_linear_565_36968)"/>
<path d="M1150.7 231.222H1153.64V232.279H1146.02V231.222H1149.42V220.014L1146.18 221.948L1145.62 221.051L1149.62 218.578H1150.7V231.222Z" fill="url(#paint81_linear_565_36968)"/>
<path d="M1150.7 254.015H1153.64V255.072H1146.02V254.015H1149.42V242.807L1146.18 244.741L1145.62 243.844L1149.62 241.371H1150.7V254.015Z" fill="url(#paint82_linear_565_36968)"/>
<path d="M1149.5 263.964C1150.93 263.964 1152.01 264.569 1152.74 265.779C1153.49 266.976 1153.86 268.717 1153.86 271.004C1153.86 273.291 1153.49 275.039 1152.74 276.249C1152.01 277.459 1150.93 278.064 1149.5 278.064C1148.09 278.064 1147.01 277.459 1146.26 276.249C1145.51 275.039 1145.14 273.291 1145.14 271.004C1145.14 268.731 1145.51 266.989 1146.26 265.779C1147.01 264.569 1148.09 263.964 1149.5 263.964ZM1146.56 271.004C1146.56 272.626 1146.71 273.896 1147 274.813L1151.44 265.978C1150.97 265.353 1150.33 265.041 1149.5 265.041C1148.58 265.041 1147.86 265.533 1147.34 266.517C1146.82 267.487 1146.56 268.983 1146.56 271.004ZM1149.5 276.967C1150.43 276.967 1151.16 276.482 1151.68 275.511C1152.2 274.528 1152.46 273.025 1152.46 271.004C1152.46 269.289 1152.29 267.959 1151.96 267.015L1147.52 275.93C1148 276.622 1148.66 276.967 1149.5 276.967Z" fill="url(#paint83_linear_565_36968)"/>
<path d="M1150.7 299.601H1153.64V300.658H1146.02V299.601H1149.42V288.392L1146.18 290.327L1145.62 289.429L1149.62 286.956H1150.7V299.601Z" fill="url(#paint84_linear_565_36968)"/>
<path d="M1150.7 322.393H1153.64V323.45H1146.02V322.393H1149.42V311.185L1146.18 313.12L1145.62 312.222L1149.62 309.749H1150.7V322.393Z" fill="url(#paint85_linear_565_36968)"/>
<path d="M1149.5 332.342C1150.93 332.342 1152.01 332.947 1152.74 334.157C1153.49 335.354 1153.86 337.096 1153.86 339.383C1153.86 341.669 1153.49 343.418 1152.74 344.628C1152.01 345.838 1150.93 346.443 1149.5 346.443C1148.09 346.443 1147.01 345.838 1146.26 344.628C1145.51 343.418 1145.14 341.669 1145.14 339.383C1145.14 337.109 1145.51 335.367 1146.26 334.157C1147.01 332.947 1148.09 332.342 1149.5 332.342ZM1146.56 339.383C1146.56 341.005 1146.71 342.274 1147 343.192L1151.44 334.357C1150.97 333.732 1150.33 333.419 1149.5 333.419C1148.58 333.419 1147.86 333.911 1147.34 334.895C1146.82 335.866 1146.56 337.362 1146.56 339.383ZM1149.5 345.346C1150.43 345.346 1151.16 344.86 1151.68 343.89C1152.2 342.906 1152.46 341.404 1152.46 339.383C1152.46 337.667 1152.29 336.338 1151.96 335.394L1147.52 344.309C1148 345 1148.66 345.346 1149.5 345.346Z" fill="url(#paint86_linear_565_36968)"/>
<path d="M1150.7 367.979H1153.64V369.036H1146.02V367.979H1149.42V356.771L1146.18 358.705L1145.62 357.808L1149.62 355.335H1150.7V367.979Z" fill="url(#paint87_linear_565_36968)"/>
<path d="M1149.5 377.928C1150.93 377.928 1152.01 378.533 1152.74 379.743C1153.49 380.94 1153.86 382.681 1153.86 384.968C1153.86 387.255 1153.49 389.003 1152.74 390.213C1152.01 391.423 1150.93 392.028 1149.5 392.028C1148.09 392.028 1147.01 391.423 1146.26 390.213C1145.51 389.003 1145.14 387.255 1145.14 384.968C1145.14 382.695 1145.51 380.953 1146.26 379.743C1147.01 378.533 1148.09 377.928 1149.5 377.928ZM1146.56 384.968C1146.56 386.59 1146.71 387.86 1147 388.777L1151.44 379.942C1150.97 379.317 1150.33 379.005 1149.5 379.005C1148.58 379.005 1147.86 379.497 1147.34 380.481C1146.82 381.451 1146.56 382.947 1146.56 384.968ZM1149.5 390.931C1150.43 390.931 1151.16 390.446 1151.68 389.475C1152.2 388.492 1152.46 386.989 1152.46 384.968C1152.46 383.253 1152.29 381.923 1151.96 380.979L1147.52 389.894C1148 390.586 1148.66 390.931 1149.5 390.931Z" fill="url(#paint88_linear_565_36968)"/>
<path d="M1186.64 172.793C1188.07 172.793 1189.15 173.398 1189.88 174.608C1190.63 175.804 1191 177.546 1191 179.833C1191 182.12 1190.63 183.868 1189.88 185.078C1189.15 186.288 1188.07 186.893 1186.64 186.893C1185.23 186.893 1184.15 186.288 1183.4 185.078C1182.65 183.868 1182.28 182.12 1182.28 179.833C1182.28 177.559 1182.65 175.818 1183.4 174.608C1184.15 173.398 1185.23 172.793 1186.64 172.793ZM1183.7 179.833C1183.7 181.455 1183.85 182.725 1184.14 183.642L1188.58 174.807C1188.11 174.182 1187.47 173.87 1186.64 173.87C1185.72 173.87 1185 174.362 1184.48 175.346C1183.96 176.316 1183.7 177.812 1183.7 179.833ZM1186.64 185.796C1187.57 185.796 1188.3 185.311 1188.82 184.34C1189.34 183.356 1189.6 181.854 1189.6 179.833C1189.6 178.118 1189.43 176.788 1189.1 175.844L1184.66 184.759C1185.14 185.45 1185.8 185.796 1186.64 185.796Z" fill="url(#paint89_linear_565_36968)"/>
<path d="M1187.84 208.429H1190.78V209.486H1183.16V208.429H1186.56V197.221L1183.32 199.156L1182.76 198.258L1186.76 195.785H1187.84V208.429Z" fill="url(#paint90_linear_565_36968)"/>
<path d="M1187.84 231.222H1190.78V232.279H1183.16V231.222H1186.56V220.014L1183.32 221.948L1182.76 221.051L1186.76 218.578H1187.84V231.222Z" fill="url(#paint91_linear_565_36968)"/>
<path d="M1186.64 241.171C1188.07 241.171 1189.15 241.776 1189.88 242.986C1190.63 244.183 1191 245.924 1191 248.211C1191 250.498 1190.63 252.247 1189.88 253.457C1189.15 254.666 1188.07 255.271 1186.64 255.271C1185.23 255.271 1184.15 254.666 1183.4 253.457C1182.65 252.247 1182.28 250.498 1182.28 248.211C1182.28 245.938 1182.65 244.196 1183.4 242.986C1184.15 241.776 1185.23 241.171 1186.64 241.171ZM1183.7 248.211C1183.7 249.833 1183.85 251.103 1184.14 252.021L1188.58 243.186C1188.11 242.561 1187.47 242.248 1186.64 242.248C1185.72 242.248 1185 242.74 1184.48 243.724C1183.96 244.695 1183.7 246.19 1183.7 248.211ZM1186.64 254.174C1187.57 254.174 1188.3 253.689 1188.82 252.719C1189.34 251.735 1189.6 250.232 1189.6 248.211C1189.6 246.496 1189.43 245.167 1189.1 244.223L1184.66 253.137C1185.14 253.829 1185.8 254.174 1186.64 254.174Z" fill="url(#paint92_linear_565_36968)"/>
<path d="M1186.64 263.964C1188.07 263.964 1189.15 264.569 1189.88 265.779C1190.63 266.976 1191 268.717 1191 271.004C1191 273.291 1190.63 275.039 1189.88 276.249C1189.15 277.459 1188.07 278.064 1186.64 278.064C1185.23 278.064 1184.15 277.459 1183.4 276.249C1182.65 275.039 1182.28 273.291 1182.28 271.004C1182.28 268.731 1182.65 266.989 1183.4 265.779C1184.15 264.569 1185.23 263.964 1186.64 263.964ZM1183.7 271.004C1183.7 272.626 1183.85 273.896 1184.14 274.813L1188.58 265.978C1188.11 265.353 1187.47 265.041 1186.64 265.041C1185.72 265.041 1185 265.533 1184.48 266.517C1183.96 267.487 1183.7 268.983 1183.7 271.004ZM1186.64 276.967C1187.57 276.967 1188.3 276.482 1188.82 275.511C1189.34 274.528 1189.6 273.025 1189.6 271.004C1189.6 269.289 1189.43 267.959 1189.1 267.015L1184.66 275.93C1185.14 276.622 1185.8 276.967 1186.64 276.967Z" fill="url(#paint93_linear_565_36968)"/>
</g>
</g>
<defs>
<filter id="filter0_f_565_36968" x="-400.19" y="-701.19" width="2141.38" height="1577.38" filterUnits="userSpaceOnUse" color-interpolation-filters="sRGB">
<feFlood flood-opacity="0" result="BackgroundImageFix"/>
<feBlend mode="normal" in="SourceGraphic" in2="BackgroundImageFix" result="shape"/>
<feGaussianBlur stdDeviation="200.095" result="effect1_foregroundBlur_565_36968"/>
</filter>
<linearGradient id="paint0_linear_565_36968" x1="196.5" y1="443" x2="196.5" y2="754.381" gradientUnits="userSpaceOnUse">
<stop stop-color="#9747FF"/>
<stop offset="1" stop-color="#9747FF" stop-opacity="0"/>
</linearGradient>
<linearGradient id="paint1_linear_565_36968" x1="196.5" y1="443" x2="196.5" y2="754.381" gradientUnits="userSpaceOnUse">
<stop stop-color="#9747FF"/>
<stop offset="1" stop-color="#9747FF" stop-opacity="0"/>
</linearGradient>
<linearGradient id="paint2_linear_565_36968" x1="196.5" y1="443" x2="196.5" y2="754.381" gradientUnits="userSpaceOnUse">
<stop stop-color="#9747FF"/>
<stop offset="1" stop-color="#9747FF" stop-opacity="0"/>
</linearGradient>
<linearGradient id="paint3_linear_565_36968" x1="196.5" y1="443" x2="196.5" y2="754.381" gradientUnits="userSpaceOnUse">
<stop stop-color="#9747FF"/>
<stop offset="1" stop-color="#9747FF" stop-opacity="0"/>
</linearGradient>
<linearGradient id="paint4_linear_565_36968" x1="196.5" y1="443" x2="196.5" y2="754.381" gradientUnits="userSpaceOnUse">
<stop stop-color="#9747FF"/>
<stop offset="1" stop-color="#9747FF" stop-opacity="0"/>
</linearGradient>
<linearGradient id="paint5_linear_565_36968" x1="196.5" y1="443" x2="196.5" y2="754.381" gradientUnits="userSpaceOnUse">
<stop stop-color="#9747FF"/>
<stop offset="1" stop-color="#9747FF" stop-opacity="0"/>
</linearGradient>
<linearGradient id="paint6_linear_565_36968" x1="196.5" y1="443" x2="196.5" y2="754.381" gradientUnits="userSpaceOnUse">
<stop stop-color="#9747FF"/>
<stop offset="1" stop-color="#9747FF" stop-opacity="0"/>
</linearGradient>
<linearGradient id="paint7_linear_565_36968" x1="196.5" y1="443" x2="196.5" y2="754.381" gradientUnits="userSpaceOnUse">
<stop stop-color="#9747FF"/>
<stop offset="1" stop-color="#9747FF" stop-opacity="0"/>
</linearGradient>
<linearGradient id="paint8_linear_565_36968" x1="196.5" y1="443" x2="196.5" y2="754.381" gradientUnits="userSpaceOnUse">
<stop stop-color="#9747FF"/>
<stop offset="1" stop-color="#9747FF" stop-opacity="0"/>
</linearGradient>
<linearGradient id="paint9_linear_565_36968" x1="196.5" y1="443" x2="196.5" y2="754.381" gradientUnits="userSpaceOnUse">
<stop stop-color="#9747FF"/>
<stop offset="1" stop-color="#9747FF" stop-opacity="0"/>
</linearGradient>
<linearGradient id="paint10_linear_565_36968" x1="196.5" y1="443" x2="196.5" y2="754.381" gradientUnits="userSpaceOnUse">
<stop stop-color="#9747FF"/>
<stop offset="1" stop-color="#9747FF" stop-opacity="0"/>
</linearGradient>
<linearGradient id="paint11_linear_565_36968" x1="196.5" y1="443" x2="196.5" y2="754.381" gradientUnits="userSpaceOnUse">
<stop stop-color="#9747FF"/>
<stop offset="1" stop-color="#9747FF" stop-opacity="0"/>
</linearGradient>
<linearGradient id="paint12_linear_565_36968" x1="196.5" y1="443" x2="196.5" y2="754.381" gradientUnits="userSpaceOnUse">
<stop stop-color="#9747FF"/>
<stop offset="1" stop-color="#9747FF" stop-opacity="0"/>
</linearGradient>
<linearGradient id="paint13_linear_565_36968" x1="196.5" y1="443" x2="196.5" y2="754.381" gradientUnits="userSpaceOnUse">
<stop stop-color="#9747FF"/>
<stop offset="1" stop-color="#9747FF" stop-opacity="0"/>
</linearGradient>
<linearGradient id="paint14_linear_565_36968" x1="196.5" y1="443" x2="196.5" y2="754.381" gradientUnits="userSpaceOnUse">
<stop stop-color="#9747FF"/>
<stop offset="1" stop-color="#9747FF" stop-opacity="0"/>
</linearGradient>
<linearGradient id="paint15_linear_565_36968" x1="196.5" y1="443" x2="196.5" y2="754.381" gradientUnits="userSpaceOnUse">
<stop stop-color="#9747FF"/>
<stop offset="1" stop-color="#9747FF" stop-opacity="0"/>
</linearGradient>
<linearGradient id="paint16_linear_565_36968" x1="196.5" y1="443" x2="196.5" y2="754.381" gradientUnits="userSpaceOnUse">
<stop stop-color="#9747FF"/>
<stop offset="1" stop-color="#9747FF" stop-opacity="0"/>
</linearGradient>
<linearGradient id="paint17_linear_565_36968" x1="196.5" y1="443" x2="196.5" y2="754.381" gradientUnits="userSpaceOnUse">
<stop stop-color="#9747FF"/>
<stop offset="1" stop-color="#9747FF" stop-opacity="0"/>
</linearGradient>
<linearGradient id="paint18_linear_565_36968" x1="196.5" y1="443" x2="196.5" y2="754.381" gradientUnits="userSpaceOnUse">
<stop stop-color="#9747FF"/>
<stop offset="1" stop-color="#9747FF" stop-opacity="0"/>
</linearGradient>
<linearGradient id="paint19_linear_565_36968" x1="196.5" y1="443" x2="196.5" y2="754.381" gradientUnits="userSpaceOnUse">
<stop stop-color="#9747FF"/>
<stop offset="1" stop-color="#9747FF" stop-opacity="0"/>
</linearGradient>
<linearGradient id="paint20_linear_565_36968" x1="196.5" y1="443" x2="196.5" y2="754.381" gradientUnits="userSpaceOnUse">
<stop stop-color="#9747FF"/>
<stop offset="1" stop-color="#9747FF" stop-opacity="0"/>
</linearGradient>
<linearGradient id="paint21_linear_565_36968" x1="196.5" y1="443" x2="196.5" y2="754.381" gradientUnits="userSpaceOnUse">
<stop stop-color="#9747FF"/>
<stop offset="1" stop-color="#9747FF" stop-opacity="0"/>
</linearGradient>
<linearGradient id="paint22_linear_565_36968" x1="196.5" y1="443" x2="196.5" y2="754.381" gradientUnits="userSpaceOnUse">
<stop stop-color="#9747FF"/>
<stop offset="1" stop-color="#9747FF" stop-opacity="0"/>
</linearGradient>
<linearGradient id="paint23_linear_565_36968" x1="196.5" y1="443" x2="196.5" y2="754.381" gradientUnits="userSpaceOnUse">
<stop stop-color="#9747FF"/>
<stop offset="1" stop-color="#9747FF" stop-opacity="0"/>
</linearGradient>
<linearGradient id="paint24_linear_565_36968" x1="196.5" y1="443" x2="196.5" y2="754.381" gradientUnits="userSpaceOnUse">
<stop stop-color="#9747FF"/>
<stop offset="1" stop-color="#9747FF" stop-opacity="0"/>
</linearGradient>
<linearGradient id="paint25_linear_565_36968" x1="196.5" y1="443" x2="196.5" y2="754.381" gradientUnits="userSpaceOnUse">
<stop stop-color="#9747FF"/>
<stop offset="1" stop-color="#9747FF" stop-opacity="0"/>
</linearGradient>
<linearGradient id="paint26_linear_565_36968" x1="196.5" y1="443" x2="196.5" y2="754.381" gradientUnits="userSpaceOnUse">
<stop stop-color="#9747FF"/>
<stop offset="1" stop-color="#9747FF" stop-opacity="0"/>
</linearGradient>
<linearGradient id="paint27_linear_565_36968" x1="196.5" y1="443" x2="196.5" y2="754.381" gradientUnits="userSpaceOnUse">
<stop stop-color="#9747FF"/>
<stop offset="1" stop-color="#9747FF" stop-opacity="0"/>
</linearGradient>
<linearGradient id="paint28_linear_565_36968" x1="196.5" y1="443" x2="196.5" y2="754.381" gradientUnits="userSpaceOnUse">
<stop stop-color="#9747FF"/>
<stop offset="1" stop-color="#9747FF" stop-opacity="0"/>
</linearGradient>
<linearGradient id="paint29_linear_565_36968" x1="196.5" y1="443" x2="196.5" y2="754.381" gradientUnits="userSpaceOnUse">
<stop stop-color="#9747FF"/>
<stop offset="1" stop-color="#9747FF" stop-opacity="0"/>
</linearGradient>
<linearGradient id="paint30_linear_565_36968" x1="196.5" y1="443" x2="196.5" y2="754.381" gradientUnits="userSpaceOnUse">
<stop stop-color="#9747FF"/>
<stop offset="1" stop-color="#9747FF" stop-opacity="0"/>
</linearGradient>
<linearGradient id="paint31_linear_565_36968" x1="196.5" y1="443" x2="196.5" y2="754.381" gradientUnits="userSpaceOnUse">
<stop stop-color="#9747FF"/>
<stop offset="1" stop-color="#9747FF" stop-opacity="0"/>
</linearGradient>
<linearGradient id="paint32_linear_565_36968" x1="196.5" y1="443" x2="196.5" y2="754.381" gradientUnits="userSpaceOnUse">
<stop stop-color="#9747FF"/>
<stop offset="1" stop-color="#9747FF" stop-opacity="0"/>
</linearGradient>
<linearGradient id="paint33_linear_565_36968" x1="196.5" y1="443" x2="196.5" y2="754.381" gradientUnits="userSpaceOnUse">
<stop stop-color="#9747FF"/>
<stop offset="1" stop-color="#9747FF" stop-opacity="0"/>
</linearGradient>
<linearGradient id="paint34_linear_565_36968" x1="196.5" y1="443" x2="196.5" y2="754.381" gradientUnits="userSpaceOnUse">
<stop stop-color="#9747FF"/>
<stop offset="1" stop-color="#9747FF" stop-opacity="0"/>
</linearGradient>
<linearGradient id="paint35_linear_565_36968" x1="196.5" y1="443" x2="196.5" y2="754.381" gradientUnits="userSpaceOnUse">
<stop stop-color="#9747FF"/>
<stop offset="1" stop-color="#9747FF" stop-opacity="0"/>
</linearGradient>
<linearGradient id="paint36_linear_565_36968" x1="196.5" y1="443" x2="196.5" y2="754.381" gradientUnits="userSpaceOnUse">
<stop stop-color="#9747FF"/>
<stop offset="1" stop-color="#9747FF" stop-opacity="0"/>
</linearGradient>
<linearGradient id="paint37_linear_565_36968" x1="196.5" y1="443" x2="196.5" y2="754.381" gradientUnits="userSpaceOnUse">
<stop stop-color="#9747FF"/>
<stop offset="1" stop-color="#9747FF" stop-opacity="0"/>
</linearGradient>
<linearGradient id="paint38_linear_565_36968" x1="196.5" y1="443" x2="196.5" y2="754.381" gradientUnits="userSpaceOnUse">
<stop stop-color="#9747FF"/>
<stop offset="1" stop-color="#9747FF" stop-opacity="0"/>
</linearGradient>
<linearGradient id="paint39_linear_565_36968" x1="196.5" y1="443" x2="196.5" y2="754.381" gradientUnits="userSpaceOnUse">
<stop stop-color="#9747FF"/>
<stop offset="1" stop-color="#9747FF" stop-opacity="0"/>
</linearGradient>
<linearGradient id="paint40_linear_565_36968" x1="196.5" y1="443" x2="196.5" y2="754.381" gradientUnits="userSpaceOnUse">
<stop stop-color="#9747FF"/>
<stop offset="1" stop-color="#9747FF" stop-opacity="0"/>
</linearGradient>
<linearGradient id="paint41_linear_565_36968" x1="196.5" y1="443" x2="196.5" y2="754.381" gradientUnits="userSpaceOnUse">
<stop stop-color="#9747FF"/>
<stop offset="1" stop-color="#9747FF" stop-opacity="0"/>
</linearGradient>
<linearGradient id="paint42_linear_565_36968" x1="196.5" y1="443" x2="196.5" y2="754.381" gradientUnits="userSpaceOnUse">
<stop stop-color="#9747FF"/>
<stop offset="1" stop-color="#9747FF" stop-opacity="0"/>
</linearGradient>
<linearGradient id="paint43_linear_565_36968" x1="196.5" y1="443" x2="196.5" y2="754.381" gradientUnits="userSpaceOnUse">
<stop stop-color="#9747FF"/>
<stop offset="1" stop-color="#9747FF" stop-opacity="0"/>
</linearGradient>
<linearGradient id="paint44_linear_565_36968" x1="196.5" y1="443" x2="196.5" y2="754.381" gradientUnits="userSpaceOnUse">
<stop stop-color="#9747FF"/>
<stop offset="1" stop-color="#9747FF" stop-opacity="0"/>
</linearGradient>
<linearGradient id="paint45_linear_565_36968" x1="196.5" y1="443" x2="196.5" y2="754.381" gradientUnits="userSpaceOnUse">
<stop stop-color="#9747FF"/>
<stop offset="1" stop-color="#9747FF" stop-opacity="0"/>
</linearGradient>
<linearGradient id="paint46_linear_565_36968" x1="196.5" y1="443" x2="196.5" y2="754.381" gradientUnits="userSpaceOnUse">
<stop stop-color="#9747FF"/>
<stop offset="1" stop-color="#9747FF" stop-opacity="0"/>
</linearGradient>
<linearGradient id="paint47_linear_565_36968" x1="1149.5" y1="150" x2="1149.5" y2="448.818" gradientUnits="userSpaceOnUse">
<stop stop-color="#9747FF"/>
<stop offset="1" stop-color="#9747FF" stop-opacity="0"/>
</linearGradient>
<linearGradient id="paint48_linear_565_36968" x1="1149.5" y1="150" x2="1149.5" y2="448.818" gradientUnits="userSpaceOnUse">
<stop stop-color="#9747FF"/>
<stop offset="1" stop-color="#9747FF" stop-opacity="0"/>
</linearGradient>
<linearGradient id="paint49_linear_565_36968" x1="1149.5" y1="150" x2="1149.5" y2="448.818" gradientUnits="userSpaceOnUse">
<stop stop-color="#9747FF"/>
<stop offset="1" stop-color="#9747FF" stop-opacity="0"/>
</linearGradient>
<linearGradient id="paint50_linear_565_36968" x1="1149.5" y1="150" x2="1149.5" y2="448.818" gradientUnits="userSpaceOnUse">
<stop stop-color="#9747FF"/>
<stop offset="1" stop-color="#9747FF" stop-opacity="0"/>
</linearGradient>
<linearGradient id="paint51_linear_565_36968" x1="1149.5" y1="150" x2="1149.5" y2="448.818" gradientUnits="userSpaceOnUse">
<stop stop-color="#9747FF"/>
<stop offset="1" stop-color="#9747FF" stop-opacity="0"/>
</linearGradient>
<linearGradient id="paint52_linear_565_36968" x1="1149.5" y1="150" x2="1149.5" y2="448.818" gradientUnits="userSpaceOnUse">
<stop stop-color="#9747FF"/>
<stop offset="1" stop-color="#9747FF" stop-opacity="0"/>
</linearGradient>
<linearGradient id="paint53_linear_565_36968" x1="1149.5" y1="150" x2="1149.5" y2="448.818" gradientUnits="userSpaceOnUse">
<stop stop-color="#9747FF"/>
<stop offset="1" stop-color="#9747FF" stop-opacity="0"/>
</linearGradient>
<linearGradient id="paint54_linear_565_36968" x1="1149.5" y1="150" x2="1149.5" y2="448.818" gradientUnits="userSpaceOnUse">
<stop stop-color="#9747FF"/>
<stop offset="1" stop-color="#9747FF" stop-opacity="0"/>
</linearGradient>
<linearGradient id="paint55_linear_565_36968" x1="1149.5" y1="150" x2="1149.5" y2="448.818" gradientUnits="userSpaceOnUse">
<stop stop-color="#9747FF"/>
<stop offset="1" stop-color="#9747FF" stop-opacity="0"/>
</linearGradient>
<linearGradient id="paint56_linear_565_36968" x1="1149.5" y1="150" x2="1149.5" y2="448.818" gradientUnits="userSpaceOnUse">
<stop stop-color="#9747FF"/>
<stop offset="1" stop-color="#9747FF" stop-opacity="0"/>
</linearGradient>
<linearGradient id="paint57_linear_565_36968" x1="1149.5" y1="150" x2="1149.5" y2="448.818" gradientUnits="userSpaceOnUse">
<stop stop-color="#9747FF"/>
<stop offset="1" stop-color="#9747FF" stop-opacity="0"/>
</linearGradient>
<linearGradient id="paint58_linear_565_36968" x1="1149.5" y1="150" x2="1149.5" y2="448.818" gradientUnits="userSpaceOnUse">
<stop stop-color="#9747FF"/>
<stop offset="1" stop-color="#9747FF" stop-opacity="0"/>
</linearGradient>
<linearGradient id="paint59_linear_565_36968" x1="1149.5" y1="150" x2="1149.5" y2="448.818" gradientUnits="userSpaceOnUse">
<stop stop-color="#9747FF"/>
<stop offset="1" stop-color="#9747FF" stop-opacity="0"/>
</linearGradient>
<linearGradient id="paint60_linear_565_36968" x1="1149.5" y1="150" x2="1149.5" y2="448.818" gradientUnits="userSpaceOnUse">
<stop stop-color="#9747FF"/>
<stop offset="1" stop-color="#9747FF" stop-opacity="0"/>
</linearGradient>
<linearGradient id="paint61_linear_565_36968" x1="1149.5" y1="150" x2="1149.5" y2="448.818" gradientUnits="userSpaceOnUse">
<stop stop-color="#9747FF"/>
<stop offset="1" stop-color="#9747FF" stop-opacity="0"/>
</linearGradient>
<linearGradient id="paint62_linear_565_36968" x1="1149.5" y1="150" x2="1149.5" y2="448.818" gradientUnits="userSpaceOnUse">
<stop stop-color="#9747FF"/>
<stop offset="1" stop-color="#9747FF" stop-opacity="0"/>
</linearGradient>
<linearGradient id="paint63_linear_565_36968" x1="1149.5" y1="150" x2="1149.5" y2="448.818" gradientUnits="userSpaceOnUse">
<stop stop-color="#9747FF"/>
<stop offset="1" stop-color="#9747FF" stop-opacity="0"/>
</linearGradient>
<linearGradient id="paint64_linear_565_36968" x1="1149.5" y1="150" x2="1149.5" y2="448.818" gradientUnits="userSpaceOnUse">
<stop stop-color="#9747FF"/>
<stop offset="1" stop-color="#9747FF" stop-opacity="0"/>
</linearGradient>
<linearGradient id="paint65_linear_565_36968" x1="1149.5" y1="150" x2="1149.5" y2="448.818" gradientUnits="userSpaceOnUse">
<stop stop-color="#9747FF"/>
<stop offset="1" stop-color="#9747FF" stop-opacity="0"/>
</linearGradient>
<linearGradient id="paint66_linear_565_36968" x1="1149.5" y1="150" x2="1149.5" y2="448.818" gradientUnits="userSpaceOnUse">
<stop stop-color="#9747FF"/>
<stop offset="1" stop-color="#9747FF" stop-opacity="0"/>
</linearGradient>
<linearGradient id="paint67_linear_565_36968" x1="1149.5" y1="150" x2="1149.5" y2="448.818" gradientUnits="userSpaceOnUse">
<stop stop-color="#9747FF"/>
<stop offset="1" stop-color="#9747FF" stop-opacity="0"/>
</linearGradient>
<linearGradient id="paint68_linear_565_36968" x1="1149.5" y1="150" x2="1149.5" y2="448.818" gradientUnits="userSpaceOnUse">
<stop stop-color="#9747FF"/>
<stop offset="1" stop-color="#9747FF" stop-opacity="0"/>
</linearGradient>
<linearGradient id="paint69_linear_565_36968" x1="1149.5" y1="150" x2="1149.5" y2="448.818" gradientUnits="userSpaceOnUse">
<stop stop-color="#9747FF"/>
<stop offset="1" stop-color="#9747FF" stop-opacity="0"/>
</linearGradient>
<linearGradient id="paint70_linear_565_36968" x1="1149.5" y1="150" x2="1149.5" y2="448.818" gradientUnits="userSpaceOnUse">
<stop stop-color="#9747FF"/>
<stop offset="1" stop-color="#9747FF" stop-opacity="0"/>
</linearGradient>
<linearGradient id="paint71_linear_565_36968" x1="1149.5" y1="150" x2="1149.5" y2="448.818" gradientUnits="userSpaceOnUse">
<stop stop-color="#9747FF"/>
<stop offset="1" stop-color="#9747FF" stop-opacity="0"/>
</linearGradient>
<linearGradient id="paint72_linear_565_36968" x1="1149.5" y1="150" x2="1149.5" y2="448.818" gradientUnits="userSpaceOnUse">
<stop stop-color="#9747FF"/>
<stop offset="1" stop-color="#9747FF" stop-opacity="0"/>
</linearGradient>
<linearGradient id="paint73_linear_565_36968" x1="1149.5" y1="150" x2="1149.5" y2="448.818" gradientUnits="userSpaceOnUse">
<stop stop-color="#9747FF"/>
<stop offset="1" stop-color="#9747FF" stop-opacity="0"/>
</linearGradient>
<linearGradient id="paint74_linear_565_36968" x1="1149.5" y1="150" x2="1149.5" y2="448.818" gradientUnits="userSpaceOnUse">
<stop stop-color="#9747FF"/>
<stop offset="1" stop-color="#9747FF" stop-opacity="0"/>
</linearGradient>
<linearGradient id="paint75_linear_565_36968" x1="1149.5" y1="150" x2="1149.5" y2="448.818" gradientUnits="userSpaceOnUse">
<stop stop-color="#9747FF"/>
<stop offset="1" stop-color="#9747FF" stop-opacity="0"/>
</linearGradient>
<linearGradient id="paint76_linear_565_36968" x1="1149.5" y1="150" x2="1149.5" y2="448.818" gradientUnits="userSpaceOnUse">
<stop stop-color="#9747FF"/>
<stop offset="1" stop-color="#9747FF" stop-opacity="0"/>
</linearGradient>
<linearGradient id="paint77_linear_565_36968" x1="1149.5" y1="150" x2="1149.5" y2="448.818" gradientUnits="userSpaceOnUse">
<stop stop-color="#9747FF"/>
<stop offset="1" stop-color="#9747FF" stop-opacity="0"/>
</linearGradient>
<linearGradient id="paint78_linear_565_36968" x1="1149.5" y1="150" x2="1149.5" y2="448.818" gradientUnits="userSpaceOnUse">
<stop stop-color="#9747FF"/>
<stop offset="1" stop-color="#9747FF" stop-opacity="0"/>
</linearGradient>
<linearGradient id="paint79_linear_565_36968" x1="1149.5" y1="150" x2="1149.5" y2="448.818" gradientUnits="userSpaceOnUse">
<stop stop-color="#9747FF"/>
<stop offset="1" stop-color="#9747FF" stop-opacity="0"/>
</linearGradient>
<linearGradient id="paint80_linear_565_36968" x1="1149.5" y1="150" x2="1149.5" y2="448.818" gradientUnits="userSpaceOnUse">
<stop stop-color="#9747FF"/>
<stop offset="1" stop-color="#9747FF" stop-opacity="0"/>
</linearGradient>
<linearGradient id="paint81_linear_565_36968" x1="1149.5" y1="150" x2="1149.5" y2="448.818" gradientUnits="userSpaceOnUse">
<stop stop-color="#9747FF"/>
<stop offset="1" stop-color="#9747FF" stop-opacity="0"/>
</linearGradient>
<linearGradient id="paint82_linear_565_36968" x1="1149.5" y1="150" x2="1149.5" y2="448.818" gradientUnits="userSpaceOnUse">
<stop stop-color="#9747FF"/>
<stop offset="1" stop-color="#9747FF" stop-opacity="0"/>
</linearGradient>
<linearGradient id="paint83_linear_565_36968" x1="1149.5" y1="150" x2="1149.5" y2="448.818" gradientUnits="userSpaceOnUse">
<stop stop-color="#9747FF"/>
<stop offset="1" stop-color="#9747FF" stop-opacity="0"/>
</linearGradient>
<linearGradient id="paint84_linear_565_36968" x1="1149.5" y1="150" x2="1149.5" y2="448.818" gradientUnits="userSpaceOnUse">
<stop stop-color="#9747FF"/>
<stop offset="1" stop-color="#9747FF" stop-opacity="0"/>
</linearGradient>
<linearGradient id="paint85_linear_565_36968" x1="1149.5" y1="150" x2="1149.5" y2="448.818" gradientUnits="userSpaceOnUse">
<stop stop-color="#9747FF"/>
<stop offset="1" stop-color="#9747FF" stop-opacity="0"/>
</linearGradient>
<linearGradient id="paint86_linear_565_36968" x1="1149.5" y1="150" x2="1149.5" y2="448.818" gradientUnits="userSpaceOnUse">
<stop stop-color="#9747FF"/>
<stop offset="1" stop-color="#9747FF" stop-opacity="0"/>
</linearGradient>
<linearGradient id="paint87_linear_565_36968" x1="1149.5" y1="150" x2="1149.5" y2="448.818" gradientUnits="userSpaceOnUse">
<stop stop-color="#9747FF"/>
<stop offset="1" stop-color="#9747FF" stop-opacity="0"/>
</linearGradient>
<linearGradient id="paint88_linear_565_36968" x1="1149.5" y1="150" x2="1149.5" y2="448.818" gradientUnits="userSpaceOnUse">
<stop stop-color="#9747FF"/>
<stop offset="1" stop-color="#9747FF" stop-opacity="0"/>
</linearGradient>
<linearGradient id="paint89_linear_565_36968" x1="1149.5" y1="150" x2="1149.5" y2="448.818" gradientUnits="userSpaceOnUse">
<stop stop-color="#9747FF"/>
<stop offset="1" stop-color="#9747FF" stop-opacity="0"/>
</linearGradient>
<linearGradient id="paint90_linear_565_36968" x1="1149.5" y1="150" x2="1149.5" y2="448.818" gradientUnits="userSpaceOnUse">
<stop stop-color="#9747FF"/>
<stop offset="1" stop-color="#9747FF" stop-opacity="0"/>
</linearGradient>
<linearGradient id="paint91_linear_565_36968" x1="1149.5" y1="150" x2="1149.5" y2="448.818" gradientUnits="userSpaceOnUse">
<stop stop-color="#9747FF"/>
<stop offset="1" stop-color="#9747FF" stop-opacity="0"/>
</linearGradient>
<linearGradient id="paint92_linear_565_36968" x1="1149.5" y1="150" x2="1149.5" y2="448.818" gradientUnits="userSpaceOnUse">
<stop stop-color="#9747FF"/>
<stop offset="1" stop-color="#9747FF" stop-opacity="0"/>
</linearGradient>
<linearGradient id="paint93_linear_565_36968" x1="1149.5" y1="150" x2="1149.5" y2="448.818" gradientUnits="userSpaceOnUse">
<stop stop-color="#9747FF"/>
<stop offset="1" stop-color="#9747FF" stop-opacity="0"/>
</linearGradient>
<clipPath id="clip0_565_36968">
<rect width="1341" height="933" fill="white"/>
</clipPath>
</defs>
</svg>
